<?xml version="1.0" encoding="utf-8"?>
<!-- Generator: Adobe Illustrator 16.0.0, SVG Export Plug-In . SVG Version: 6.00 Build 0)  -->
<!DOCTYPE svg PUBLIC "-//W3C//DTD SVG 1.1//EN" "http://www.w3.org/Graphics/SVG/1.1/DTD/svg11.dtd">
<svg version="1.1" id="Warstwa_1" xmlns="http://www.w3.org/2000/svg" xmlns:xlink="http://www.w3.org/1999/xlink" x="0px" y="0px"
	 width="400px" height="100px" viewBox="0 0 400 100" enable-background="new 0 0 400 100" xml:space="preserve">
<g>
	<defs>
		<rect id="SVGID_1_" x="193.181" y="4.146" width="112.181" height="86.011"/>
	</defs>
	<clipPath id="SVGID_2_">
		<use xlink:href="#SVGID_1_"  overflow="visible"/>
	</clipPath>
	<g clip-path="url(#SVGID_2_)">
		<path fill-rule="evenodd" clip-rule="evenodd" fill="#63BAA1" d="M219.601,51.602c-2.793-0.37-3.388-1.042-3.388-3.664
			c0-4.23-0.004-8.46,0.002-12.691c0.003-2.189,0.967-3.102,3.286-3.104c6.473-0.005,12.947-0.002,19.528-0.174
			c-0.333-0.215-0.664-0.435-1.001-0.643c-2.994-1.848-5.848-3.853-7.87-6.732c-1.938-2.758-2.54-5.718-0.718-8.683
			c1.941-3.162,4.723-5.361,8.808-5.365c2.792-0.002,4.794,1.531,6.453,3.494c2.785,3.299,4.282,7.198,5.575,11.182
			c0.075,0.232,0.157,0.462,0.286,0.846c0.515-1.274,0.942-2.427,1.441-3.551c0.99-2.237,2.216-4.337,4.178-5.951
			c2.473-2.033,5.55-2.318,8.469-0.809c3.529,1.825,5.336,4.503,4.679,7.538c-0.306,1.41-1.06,2.866-2.021,3.98
			c-1.308,1.518-3.004,2.73-4.542,4.066c-0.261,0.225-0.561,0.41-1.098,0.8c0.639,0,0.983,0,1.327,0
			c5.487,0,10.974-0.003,16.461,0.001c2.418,0.001,3.361,0.852,3.374,3.132c0.027,4.404,0.025,8.808,0.008,13.213
			c-0.009,2.06-0.718,2.708-3.4,3.137c0,0.418,0,0.859,0,1.304c0,9.646,0.003,19.295-0.002,28.943
			c-0.001,2.329-0.955,3.266-3.375,3.266c-17.779,0.013-35.556,0.013-53.334,0.011c-2.067,0-3.11-1.036-3.115-3.098
			c-0.013-8.005-0.008-16.01-0.01-24.015C219.601,55.906,219.601,53.777,219.601,51.602z M225.101,49.234
			c0,10.293,0,20.453,0,30.656c6.517,0,12.968,0,19.431,0c0-10.259,0-20.443,0-30.656C238.024,49.234,231.603,49.234,225.101,49.234
			z M254.748,79.881c6.481,0,12.826,0,19.146,0c0-10.267,0-20.451,0-30.623c-6.433,0-12.778,0-19.146,0
			C254.748,59.501,254.748,69.66,254.748,79.881z M244.556,37.411c-7.639,0-15.215,0-22.831,0c0,2.899,0,5.735,0,8.577
			c7.66,0,15.235,0,22.831,0C244.556,43.093,244.556,40.28,244.556,37.411z M254.768,37.422c0,2.915,0,5.727,0,8.579
			c7.563,0,15.046,0,22.596,0c0-2.883,0-5.696,0-8.579C269.826,37.422,262.343,37.422,254.768,37.422z M245.669,29.469
			c-0.212-2.634-2.893-9.275-4.628-11.593c-2.062-2.755-3.893-2.836-6.248-0.277c-0.073,0.079-0.145,0.159-0.214,0.239
			c-0.802,0.923-0.993,1.941-0.409,3.017c0.317,0.583,0.681,1.164,1.133,1.654C238.134,25.588,241.834,27.487,245.669,29.469z
			 M255.313,29.518c0.087,0.089,0.173,0.18,0.259,0.27c2.154-1.521,4.344-2.998,6.439-4.586c0.724-0.549,1.32-1.324,1.766-2.104
			c0.22-0.384,0.165-1.151-0.105-1.511c-1.574-2.105-3.511-2.083-5.043,0.034C256.9,24.011,256.083,26.76,255.313,29.518z"/>
		<path fill-rule="evenodd" clip-rule="evenodd" fill="#9D9D9D" d="M263.672,21.587c0.27,0.36,0.325,1.127,0.105,1.511"/>
		<path fill-rule="evenodd" clip-rule="evenodd" fill="#9D9D9D" d="M255.572,29.788c-0.086-0.09-0.171-0.181-0.259-0.27"/>
	</g>
</g>
<g>
	<path fill="#63BAA1" d="M4.689,64.359c0-0.359,0-0.719,0-1.078c0.037-0.116,0.079-0.229,0.111-0.347
		c0.278-1.021,0.884-1.79,1.833-2.246c0.446-0.213,0.948-0.312,1.482-0.479c0-0.085,0-0.24,0-0.394c0-12.814,0-25.629,0-38.445
		c0-0.157,0.007-0.314,0.01-0.471c18.102,0,36.205,0,54.308,0c0.108,0.024,0.216,0.052,0.326,0.069
		c0.972,0.151,1.87,0.477,2.611,1.146c1.216,1.098,1.691,2.523,1.693,4.106c0.012,13.586,0.007,27.172,0.007,40.758
		c0,0.12,0,0.24,0,0.38c-10.295,0-20.552,0-30.802,0c-1.423-5.34-6.058-8.938-11.352-9.189c-5.376-0.255-10.996,3.403-12.388,9.199
		c-1.512,0-3.03,0.062-4.541-0.019c-1.503-0.079-2.542-0.91-3.097-2.318C4.805,64.814,4.755,64.583,4.689,64.359z"/>
	<path fill-rule="evenodd" clip-rule="evenodd" fill="#63BAA1" d="M8.125,20.899c-0.003,0.157-0.01,0.314-0.01,0.471
		c0,12.816,0,25.631,0,38.445c0,0.153,0,0.309,0,0.394c-0.535,0.168-1.036,0.267-1.482,0.479c-0.949,0.456-1.555,1.226-1.833,2.246
		c-0.032,0.117-0.074,0.23-0.111,0.347c0-14.128,0-28.254,0-42.382C5.834,20.899,6.98,20.899,8.125,20.899z"/>
	<path fill-rule="evenodd" clip-rule="evenodd" fill="#63BAA1" d="M70.686,61.914c0-9.064,0-18.128,0-27.233
		c0.164,0,0.306,0,0.449,0c4.985,0,9.969,0.006,14.955-0.004c1.5-0.003,2.719,0.625,3.569,1.781
		c2.264,3.076,4.272,6.316,5.769,9.847c0.614,1.449,1.106,2.938,1.266,4.517c0.02,0.188,0.033,0.38,0.033,0.57
		c0.001,4.839,0.001,9.677,0.001,14.517c0,1.048-0.506,1.644-1.544,1.689c-1.166,0.05-2.334,0.018-3.501,0.031
		c-0.217,0.003-0.248-0.117-0.292-0.283c-0.623-2.35-1.83-4.345-3.619-5.99c-4.756-4.373-12.226-4.22-16.793,0.349
		c-0.078,0.078-0.148,0.165-0.221,0.249C70.733,61.938,70.709,61.926,70.686,61.914z M75.527,37.709c0,2.91,0,5.776,0,8.647
		c5.532,0,11.039,0,16.57,0c-0.032-0.09-0.05-0.164-0.083-0.232c-1.329-2.743-2.942-5.313-4.724-7.782
		c-0.302-0.417-0.739-0.644-1.303-0.641c-3.345,0.015-6.689,0.007-10.033,0.007C75.812,37.709,75.668,37.709,75.527,37.709z"/>
	<path fill-rule="evenodd" clip-rule="evenodd" fill="#63BAA1" d="M33.626,70.41c0.009,5.146-4.282,9.298-9.428,9.183
		c-4.997-0.111-9.067-4.249-9.018-9.328c0.048-4.992,4.159-9.092,9.214-9.104C29.503,61.148,33.627,65.28,33.626,70.41z
		 M28.677,70.378c0-2.352-1.903-4.266-4.246-4.268c-2.373-0.003-4.3,1.903-4.302,4.254c-0.001,2.36,1.918,4.291,4.271,4.294
		C26.759,74.66,28.677,72.742,28.677,70.378z"/>
	<path fill-rule="evenodd" clip-rule="evenodd" fill="#63BAA1" d="M79.563,61.16c5.147,0.013,9.245,4.145,9.208,9.34
		c-0.037,5.137-4.338,9.25-9.517,9.091c-4.883-0.149-9.051-4.2-8.924-9.449C70.45,65.204,74.467,61.175,79.563,61.16z M75.27,70.364
		c-0.019,2.32,1.913,4.275,4.242,4.294c2.343,0.019,4.296-1.888,4.316-4.212c0.021-2.352-1.857-4.313-4.151-4.336
		C77.234,66.086,75.288,67.964,75.27,70.364z"/>
</g>
<g>
	<path fill-rule="evenodd" clip-rule="evenodd" fill="#63BAA1" d="M190.707,13.934c-1.149,1.021-2.3,2.037-3.444,3.064
		c-5.83,5.233-10.736,11.279-15.393,17.543c-6.768,9.1-12.412,18.854-17.017,29.217c-0.755,1.702-1.674,3.33-2.509,4.997
		c-0.439,0.873-1.172,1.337-2.098,1.513c-2.567,0.484-5.152,0.52-7.726,0.119c-0.535-0.084-1.116-0.461-1.487-0.872
		c-0.833-0.92-1.577-1.925-2.303-2.935c-2.491-3.47-5.286-6.669-8.35-9.643c-0.728-0.707-1.377-1.503-1.998-2.307
		c-0.627-0.814-0.507-1.668,0.05-2.491c2.055-3.039,6.389-4.157,9.66-2.533c2.802,1.393,4.883,3.57,6.722,6.021
		c0.803,1.07,1.559,2.177,2.39,3.342c0.173-0.334,0.322-0.613,0.463-0.896c6.013-12.066,12.998-23.518,21.638-33.9
		c2.112-2.538,4.461-4.883,6.713-7.305c2.062-2.216,4.672-3.18,7.642-3.397c1.557-0.114,3.103-0.383,4.655-0.584
		c0.779,0,1.56,0,2.391,0C190.707,13.233,190.707,13.583,190.707,13.934z"/>
	<path fill-rule="evenodd" clip-rule="evenodd" fill="#63BAA1" d="M118.217,36.354c0.517-1.825,1.576-3.146,3.473-3.635
		c0.524-0.136,1.083-0.185,1.625-0.188c11.732-0.01,23.464-0.007,35.196-0.005c0.172,0,0.343,0.015,0.688,0.031
		c-0.396,0.582-0.732,1.079-1.071,1.572c-0.534,0.779-0.908,1.867-1.648,2.249c-0.771,0.399-1.895,0.132-2.863,0.132
		c-10.014,0.003-20.028,0.002-30.041,0.002c-1.167,0-1.232,0.063-1.232,1.222c0,13.153,0,26.305,0,39.457
		c0.001,1.147,0.044,1.194,1.164,1.194c14.048,0.001,28.097,0.001,42.146,0c1.095,0,1.142-0.049,1.142-1.141
		c0-9.714-0.004-19.43,0.016-29.143c0.001-0.442,0.142-0.938,0.373-1.313c1.031-1.673,2.117-3.314,3.187-4.962
		c0.129-0.203,0.282-0.391,0.572-0.553c0,0.258,0,0.516,0,0.772c0,11.708,0,23.414,0,35.123c-0.001,2.806-1.06,4.252-3.743,5.123
		c-0.042,0.014-0.074,0.062-0.11,0.095c-14.996,0-29.993,0-44.989,0c-1.989-0.526-3.303-1.75-3.886-3.736
		C118.217,64.551,118.217,50.452,118.217,36.354z"/>
</g>
<path fill-rule="evenodd" clip-rule="evenodd" fill="#63BAA1" d="M320.635,76.662c-1.169,1.633-3.443,2.008-5.077,0.837l0,0
	c-1.632-1.17-2.007-3.44-0.837-5.074l32.653-45.572c1.169-1.632,3.443-2.008,5.075-0.838l0,0c1.634,1.17,2.008,3.442,0.839,5.076
	L320.635,76.662z"/>
<circle fill-rule="evenodd" clip-rule="evenodd" fill="none" stroke="#63BAA1" stroke-width="5" stroke-miterlimit="10" cx="322.653" cy="35.828" r="6.231"/>
<path fill-rule="evenodd" clip-rule="evenodd" fill="#63BAA1" d="M382.022,92.971l10.79-10.789c0.386-0.388-0.112-1.514-1.113-2.515
	c-1.002-1.001-2.128-1.5-2.514-1.113l-5.791,5.789V50.744c0-1.417-1.148-2.564-2.565-2.564c-1.417,0-2.565,1.147-2.565,2.564v33.915
	l-6.106-6.105c-0.387-0.388-1.513,0.111-2.515,1.113c-1.002,1.001-1.5,2.127-1.114,2.514l10.791,10.79"/>
<circle fill-rule="evenodd" clip-rule="evenodd" fill="none" stroke="#63BAA1" stroke-width="5" stroke-miterlimit="10" cx="345.653" cy="68.828" r="6.231"/>
</svg>
