<?xml version="1.0" encoding="utf-8"?>
<!-- Generator: Adobe Illustrator 16.0.0, SVG Export Plug-In . SVG Version: 6.00 Build 0)  -->
<!DOCTYPE svg PUBLIC "-//W3C//DTD SVG 1.1//EN" "http://www.w3.org/Graphics/SVG/1.1/DTD/svg11.dtd">
<svg version="1.1" id="Warstwa_1" xmlns="http://www.w3.org/2000/svg" xmlns:xlink="http://www.w3.org/1999/xlink" x="0px" y="0px"
	 width="224px" height="28px" viewBox="0 0 224 28" enable-background="new 0 0 224 28" xml:space="preserve">
<g>
	<path fill-rule="evenodd" clip-rule="evenodd" fill="#63BAA1" d="M20.258,25.502c-1.062,0.603-2.113,1.187-3.366,0.94
		c-0.524-0.104-1.051-0.316-1.516-0.586c-1.499-0.871-2.725-2.07-3.845-3.377c-2.208-2.577-3.925-5.456-5.199-8.597
		c-0.701-1.728-1.22-3.506-1.384-5.373c-0.08-0.922-0.095-1.851,0.39-2.682c0.22-0.376,0.506-0.738,0.835-1.02
		C6.632,4.416,7.16,4.104,7.692,3.735c1.178,2.041,2.332,4.038,3.5,6.062c-0.552,0.36-0.879,0.864-1.018,1.494
		c-0.143,0.646-0.125,1.298,0.014,1.937c0.479,2.211,1.512,4.114,3.233,5.608c0.626,0.544,1.345,0.945,2.206,0.923
		c0.382-0.01,0.761-0.135,1.191-0.219C17.938,21.482,19.091,23.48,20.258,25.502z"/>
	<path fill-rule="evenodd" clip-rule="evenodd" fill="#63BAA1" d="M12.344,9.728c-0.39-0.004-0.622-0.14-0.772-0.4
		c-1.09-1.885-2.181-3.77-3.263-5.66c-0.23-0.403-0.113-0.833,0.282-1.073c0.556-0.337,1.119-0.662,1.688-0.978
		c0.415-0.23,0.862-0.116,1.098,0.291c1.094,1.882,2.183,3.768,3.265,5.658c0.229,0.399,0.11,0.838-0.282,1.075
		c-0.565,0.342-1.14,0.667-1.716,0.99C12.531,9.694,12.394,9.712,12.344,9.728z"/>
	<path fill-rule="evenodd" clip-rule="evenodd" fill="#63BAA1" d="M19.578,17.084c0.401-0.002,0.636,0.128,0.788,0.391
		c1.09,1.885,2.182,3.769,3.263,5.657c0.238,0.417,0.113,0.848-0.299,1.094c-0.548,0.329-1.102,0.649-1.662,0.959
		c-0.429,0.239-0.87,0.119-1.118-0.308c-1.083-1.865-2.162-3.732-3.235-5.603c-0.25-0.435-0.136-0.869,0.285-1.122
		c0.548-0.328,1.104-0.646,1.662-0.959C19.384,17.125,19.53,17.101,19.578,17.084z"/>
</g>
<g>
	<path fill-rule="evenodd" clip-rule="evenodd" fill="#63BAA1" d="M29.58,7.354c1.484,1.235,2.968,2.47,4.45,3.707
		c1.328,1.107,2.653,2.217,3.981,3.326c0.036,0.03,0.071,0.062,0.133,0.115c-2.824,2.359-5.635,4.708-8.461,7.069
		c-0.04-0.078-0.071-0.138-0.103-0.198C29.58,16.701,29.58,12.027,29.58,7.354z"/>
	<path fill-rule="evenodd" clip-rule="evenodd" fill="#63BAA1" d="M54.42,21.374c-0.028,0.056-0.056,0.111-0.099,0.199
		c-2.819-2.354-5.63-4.703-8.467-7.071c0.388-0.324,0.763-0.64,1.138-0.953c2.456-2.052,4.912-4.103,7.368-6.154
		c0.019-0.016,0.04-0.027,0.06-0.04C54.42,12.027,54.42,16.701,54.42,21.374z"/>
	<path fill-rule="evenodd" clip-rule="evenodd" fill="#63BAA1" d="M54.151,6.119c-0.758,0.634-1.508,1.26-2.258,1.886
		c-2.988,2.497-5.977,4.994-8.967,7.49c-0.669,0.559-1.164,0.569-1.836,0.01c-2.62-2.182-5.234-4.369-7.851-6.555
		c-1.054-0.881-2.108-1.762-3.162-2.642c-0.075-0.062-0.148-0.125-0.241-0.203c0.294-0.401,0.673-0.601,1.158-0.603
		c0.849-0.001,1.697-0.002,2.546-0.002c5.116,0,10.231,0,15.348,0c1.349,0,2.699-0.003,4.048,0.001
		C53.493,5.503,53.889,5.703,54.151,6.119z"/>
	<path fill-rule="evenodd" clip-rule="evenodd" fill="#63BAA1" d="M39.014,15.227c0.713,0.595,1.412,1.182,2.114,1.764
		c0.632,0.522,1.122,0.518,1.753-0.008c0.694-0.58,1.389-1.159,2.104-1.756c2.849,2.38,5.695,4.759,8.542,7.137
		c-0.003,0.021-0.006,0.043-0.009,0.064c-0.179,0.024-0.358,0.067-0.537,0.067C50.136,22.5,47.291,22.5,44.445,22.5
		c-4.453,0-8.906,0.001-13.359-0.004c-0.203,0-0.403-0.044-0.606-0.067c-0.001-0.022-0.003-0.046-0.005-0.068
		C33.319,19.985,36.164,17.608,39.014,15.227z"/>
</g>
<g>
	<path fill="#63BAA1" d="M77.746,8.596c0,0.565,0,1.132,0,1.698c-0.09,0.474-0.163,0.95-0.274,1.419
		c-0.474,2-1.318,3.857-2.32,5.635c-1.712,3.031-3.484,6.029-5.232,9.039c-0.022,0.039-0.058,0.068-0.098,0.113
		c-0.047-0.07-0.083-0.117-0.113-0.17c-1.027-1.736-2.06-3.471-3.08-5.213c-1.32-2.256-2.645-4.512-3.634-6.939
		c-0.616-1.514-1.075-3.062-1.083-4.72c-0.016-3.66,2.506-6.879,6.071-7.715c0.458-0.107,0.928-0.163,1.393-0.243
		c0.303,0,0.606,0,0.91,0c0.066,0.018,0.132,0.045,0.199,0.051c3.395,0.276,6.212,2.673,7.035,5.99
		C77.606,7.89,77.671,8.244,77.746,8.596z M69.852,21.777c1.081-1.902,2.138-3.715,3.148-5.555c0.744-1.354,1.384-2.76,1.847-4.238
		c0.356-1.137,0.611-2.288,0.379-3.485c-0.588-3.033-3.285-4.924-6.338-4.452c-2.497,0.385-4.514,2.726-4.538,5.25
		c-0.011,1.182,0.282,2.299,0.689,3.392c0.734,1.976,1.753,3.812,2.796,5.634C68.483,19.451,69.146,20.57,69.852,21.777z"/>
	<path fill-rule="evenodd" clip-rule="evenodd" fill="#63BAA1" d="M69.812,12.123c-1.529-0.001-2.741-1.22-2.74-2.754
		c0.001-1.519,1.227-2.752,2.749-2.765c1.521-0.012,2.771,1.238,2.771,2.773C72.59,10.921,71.372,12.125,69.812,12.123z"/>
</g>
<path fill-rule="evenodd" clip-rule="evenodd" fill="#63BAA1" d="M90,7.547c0.383-0.172,0.766-0.493,1.15-0.496
	c4.585-0.034,9.17-0.031,13.755-0.003c0.331,0.003,0.836,0.207,0.939,0.453c0.102,0.242-0.114,0.743-0.345,0.981
	c-1.584,1.637-3.227,3.218-4.803,4.863c-0.289,0.301-0.495,0.813-0.503,1.232c-0.047,2.418-0.007,4.839-0.042,7.256
	c-0.005,0.344-0.204,0.923-0.405,0.966c-0.316,0.069-0.79-0.139-1.059-0.38c-0.815-0.732-1.596-1.509-2.322-2.329
	c-0.268-0.303-0.47-0.768-0.487-1.168c-0.058-1.403-0.05-2.812-0.011-4.219c0.018-0.608-0.158-1.043-0.599-1.479
	c-1.779-1.757-3.517-3.557-5.27-5.341C90,7.772,90,7.659,90,7.547z"/>
<g>
	<path fill="#FFFFFF" d="M126.319,5.887c0.061,0,0.121,0,0.181,0c0.417,0.127,0.65,0.418,0.833,0.812
		c0.696,1.501,1.433,2.982,2.133,4.481c0.123,0.263,0.269,0.336,0.545,0.335c1.974-0.011,3.947-0.007,5.921-0.004
		c0.195,0,0.395,0.006,0.582,0.05c0.5,0.117,0.794,0.533,0.754,1.029c-0.038,0.486-0.414,0.854-0.917,0.891
		c-0.145,0.011-0.292,0.001-0.434,0.001c-0.035,0.188-0.066,0.32-0.083,0.455c-0.312,2.449-0.626,4.896-0.934,7.346
		c-0.133,1.062-0.381,1.293-1.442,1.29c-2.621-0.008-5.242-0.027-7.863-0.028c-2.124-0.001-4.248,0.021-6.372,0.028
		c-0.853,0.003-1.156-0.24-1.267-1.067c-0.238-1.76-0.456-3.522-0.684-5.284c-0.117-0.906-0.237-1.811-0.358-2.739
		c-0.18,0-0.314,0.008-0.447-0.001c-0.504-0.037-0.879-0.405-0.917-0.891c-0.04-0.496,0.254-0.91,0.753-1.029
		c0.173-0.042,0.358-0.049,0.537-0.05c1.989-0.003,3.978-0.007,5.966,0.004c0.276,0.001,0.422-0.072,0.545-0.335
		c0.7-1.499,1.437-2.98,2.133-4.481C125.669,6.305,125.901,6.014,126.319,5.887z M120.803,17.556c0,0.556-0.005,1.111,0.001,1.667
		c0.007,0.6,0.35,0.972,0.887,0.975c0.537,0.004,0.897-0.365,0.902-0.962c0.01-1.111,0.009-2.224,0-3.334
		c-0.004-0.59-0.367-0.976-0.89-0.979c-0.533-0.003-0.891,0.375-0.899,0.966C120.796,16.444,120.803,17,120.803,17.556z
		 M132.016,17.553c0-0.556,0.006-1.112-0.001-1.668c-0.009-0.59-0.369-0.968-0.902-0.963c-0.507,0.005-0.88,0.38-0.886,0.938
		c-0.012,1.142-0.013,2.284,0.001,3.425c0.007,0.56,0.383,0.917,0.905,0.913c0.52-0.003,0.872-0.367,0.882-0.933
		C132.024,18.694,132.016,18.123,132.016,17.553z M127.298,17.564c0-0.572,0.008-1.145-0.002-1.717
		c-0.009-0.55-0.386-0.931-0.895-0.926c-0.506,0.005-0.875,0.388-0.878,0.943c-0.008,1.13-0.007,2.26,0,3.389
		c0.003,0.568,0.353,0.935,0.873,0.943c0.538,0.01,0.896-0.366,0.902-0.96C127.303,18.68,127.299,18.122,127.298,17.564z
		 M126.408,8.739c-0.465,0.977-0.879,1.844-1.302,2.733c0.9,0,1.728,0,2.611,0C127.281,10.562,126.87,9.704,126.408,8.739z
		 M126.419,6.661c-0.136,0.184-0.28,0.295-0.272,0.393c0.009,0.102,0.163,0.264,0.256,0.266c0.094,0.002,0.255-0.151,0.269-0.253
		C126.686,6.97,126.546,6.853,126.419,6.661z"/>
</g>
<g>
	<path fill="#FFFFFF" d="M153.377,14.528c-0.326-0.443-0.326-1.168,0-1.611l5.365-7.295c0.326-0.443,0.23-1.072-0.213-1.398
		l-0.646-0.475c-0.443-0.326-1.073-0.23-1.399,0.212l-6.517,8.827c-0.327,0.443-0.331,1.169-0.009,1.616l6.944,9.629
		c0.322,0.446,0.948,0.545,1.391,0.22l0.646-0.475c0.443-0.325,0.539-0.954,0.213-1.397L153.377,14.528z"/>
</g>
<g>
	<path fill="#FFFFFF" d="M182.614,14.528c0.326-0.443,0.326-1.168,0-1.611l-5.363-7.296c-0.326-0.443-0.23-1.072,0.213-1.398
		l0.645-0.475c0.443-0.326,1.073-0.23,1.399,0.212l6.518,8.827c0.326,0.443,0.33,1.17,0.009,1.616l-6.943,9.629
		c-0.321,0.446-0.947,0.545-1.391,0.22l-0.646-0.475c-0.443-0.325-0.539-0.954-0.213-1.397L182.614,14.528z"/>
</g>
<g>
	<path fill="#FFFFFF" d="M210.407,14.645c0.326-0.443,0.326-1.168,0-1.611l-2.601-3.538c-0.326-0.443-0.3-1.021,0.059-1.286
		c0.359-0.264,0.92-0.118,1.246,0.325l3.268,4.424c0.326,0.443,0.33,1.17,0.009,1.616l-3.521,4.884
		c-0.322,0.445-0.879,0.595-1.238,0.331c-0.358-0.263-0.386-0.841-0.06-1.284L210.407,14.645z"/>
</g>
</svg>
